<?xml version="1.0" encoding="utf-8"?>
<!-- Generator: Adobe Illustrator 15.0.0, SVG Export Plug-In . SVG Version: 6.00 Build 0)  -->
<!DOCTYPE svg PUBLIC "-//W3C//DTD SVG 1.1//EN" "http://www.w3.org/Graphics/SVG/1.1/DTD/svg11.dtd">
<svg version="1.1" id="Layer_1" xmlns="http://www.w3.org/2000/svg" xmlns:xlink="http://www.w3.org/1999/xlink" x="0px" y="0px"
	 width="800px" height="600px" viewBox="0 0 800 600" enable-background="new 0 0 800 600" xml:space="preserve">
<g>
	<g>
		<path fill="#F47E20" d="M230.693,248.932v-29.318c0-1.781,1.371-3.162,3.154-3.162h20.712c1.53,0,2.804,1.273,2.804,2.804
			c0,1.575-1.274,2.798-2.804,2.798h-17.607v9.265h15.321c1.527,0,2.799,1.274,2.799,2.847c0,1.536-1.272,2.755-2.799,2.755h-15.321
			v9.566h17.865c1.53,0,2.799,1.273,2.799,2.804c0,1.577-1.27,2.794-2.799,2.794h-20.97
			C232.064,252.083,230.693,250.713,230.693,248.932z"/>
		<path fill="#F47E20" d="M254.818,252.57h-20.97c-2.044,0-3.64-1.6-3.64-3.638v-29.318c0-2.046,1.596-3.646,3.64-3.646h20.712
			c1.785,0,3.29,1.507,3.29,3.288c0,1.811-1.476,3.284-3.29,3.284h-17.121v8.293h14.834c1.811,0,3.285,1.501,3.285,3.332
			c0,1.791-1.474,3.239-3.285,3.239h-14.834v8.6h17.378c1.78,0,3.284,1.508,3.284,3.286C258.102,251.1,256.63,252.57,254.818,252.57
			z M233.848,216.936c-1.525,0-2.672,1.153-2.672,2.678v29.318c0,1.526,1.147,2.666,2.672,2.666h20.97
			c1.277,0,2.315-1.035,2.315-2.309c0-1.258-1.062-2.319-2.315-2.319h-18.35v-10.538h15.806c1.277,0,2.315-1.018,2.315-2.268
			c0-1.301-1.038-2.358-2.315-2.358h-15.806v-10.241h18.092c1.279,0,2.318-1.038,2.318-2.31c0-1.258-1.06-2.319-2.318-2.319H233.848
			z"/>
	</g>
	<g>
		<path fill="#F47E20" d="M263.611,248.932v-29.318c0-1.781,1.376-3.162,3.157-3.162h20.717c1.528,0,2.8,1.273,2.8,2.804
			c0,1.575-1.272,2.798-2.8,2.798h-17.612v9.265h15.321c1.528,0,2.8,1.274,2.8,2.847c0,1.536-1.272,2.755-2.8,2.755h-15.321v9.566
			h17.869c1.524,0,2.799,1.273,2.799,2.804c0,1.577-1.274,2.794-2.799,2.794h-20.973
			C264.987,252.083,263.611,250.713,263.611,248.932z"/>
		<path fill="#F47E20" d="M287.741,252.57h-20.973c-2.041,0-3.642-1.6-3.642-3.638v-29.318c0-2.046,1.601-3.646,3.642-3.646h20.717
			c1.81,0,3.283,1.477,3.283,3.288c0,1.811-1.473,3.284-3.283,3.284h-17.127v8.293h14.836c1.812,0,3.288,1.501,3.288,3.332
			c0,1.791-1.476,3.239-3.288,3.239h-14.836v8.6h17.384c1.777,0,3.285,1.508,3.285,3.286
			C291.026,251.1,289.555,252.57,287.741,252.57z M266.768,216.936c-1.521,0-2.667,1.153-2.667,2.678v29.318
			c0,1.526,1.146,2.666,2.667,2.666h20.973c1.277,0,2.314-1.035,2.314-2.309c0-1.258-1.061-2.319-2.314-2.319h-18.353v-10.538
			h15.805c1.277,0,2.314-1.018,2.314-2.268c0-1.301-1.038-2.358-2.314-2.358h-15.805v-10.241h18.096c1.276,0,2.315-1.038,2.315-2.31
			c0-1.258-1.058-2.319-2.315-2.319H266.768z"/>
	</g>
	<g>
		<path fill="#EF4B23" d="M387.763,247.759l13.235-29.526c0.714-1.575,1.987-2.539,3.77-2.539h0.303
			c1.783,0,3.005,0.964,3.715,2.539l13.238,29.526c0.253,0.463,0.356,0.918,0.356,1.326c0,1.684-1.27,2.998-2.95,2.998
			c-1.476,0-2.5-0.861-3.062-2.178l-2.897-6.677h-17.308l-3.003,6.874c-0.509,1.268-1.581,1.98-2.901,1.98
			c-1.63,0-2.899-1.273-2.899-2.9C387.359,248.73,387.511,248.275,387.763,247.759z M411.08,237.68l-6.262-14.407l-6.266,14.407
			H411.08z"/>
		<path fill="#EF4B23" d="M419.43,252.57c-1.585,0-2.827-0.875-3.503-2.477l-2.771-6.378h-16.672l-2.875,6.58
			c-0.57,1.415-1.822,2.274-3.349,2.274c-1.898,0-3.382-1.483-3.382-3.387c0-0.498,0.141-1.014,0.451-1.634l13.228-29.515
			c0.829-1.826,2.325-2.827,4.212-2.827h0.303c1.885,0,3.325,0.979,4.158,2.827l13.24,29.526c0.253,0.453,0.394,0.996,0.394,1.524
			C422.862,251.042,421.355,252.57,419.43,252.57z M395.845,242.744h17.945l3.026,6.962c0.366,0.871,1.119,1.893,2.613,1.893
			c1.406,0,2.464-1.073,2.464-2.513c0-0.363-0.101-0.742-0.292-1.089l-13.26-29.56c-0.673-1.501-1.777-2.258-3.271-2.258h-0.303
			c-1.904,0-2.867,1.229-3.33,2.258l-13.232,29.528c-0.252,0.5-0.361,0.877-0.361,1.218c0,1.355,1.058,2.415,2.414,2.415
			c1.131,0,2.025-0.602,2.45-1.671L395.845,242.744z M411.816,238.168h-13.999l7.001-16.109L411.816,238.168z M399.296,237.196
			h11.046l-5.523-12.704L399.296,237.196z"/>
	</g>
	<g>
		<path fill="#EF4B23" d="M426.763,219.053c0-1.729,1.374-3.105,3.153-3.105c1.734,0,3.105,1.377,3.105,3.105v15.068l16.904-17.013
			c0.71-0.756,1.478-1.161,2.597-1.161c1.729,0,2.903,1.377,2.903,2.899c0,0.971-0.41,1.68-1.12,2.339l-11.102,10.692l12.014,14.917
			c0.51,0.659,0.869,1.266,0.869,2.239c0,1.734-1.379,3.049-3.157,3.049c-1.224,0-1.987-0.603-2.646-1.478L438.825,236l-5.804,5.6
			v7.379c0,1.734-1.371,3.104-3.105,3.104c-1.779,0-3.153-1.37-3.153-3.104V219.053z"/>
		<path fill="#EF4B23" d="M452.93,252.57c-1.559,0-2.442-0.883-3.035-1.666l-11.114-14.183l-5.272,5.093v7.165
			c0,2.018-1.577,3.591-3.592,3.591c-2.038,0-3.64-1.573-3.64-3.591v-29.926c0-2.017,1.602-3.593,3.64-3.593
			c2.015,0,3.592,1.576,3.592,3.593v13.887l16.072-16.169c0.849-0.902,1.753-1.311,2.942-1.311c1.897,0,3.386,1.485,3.386,3.387
			c0,1.028-0.408,1.888-1.275,2.699l-10.775,10.375l11.739,14.564c0.604,0.788,0.975,1.485,0.975,2.549
			C456.571,251.018,454.973,252.57,452.93,252.57z M438.879,235.283l11.784,15.03c0.703,0.915,1.358,1.285,2.267,1.285
			c1.525,0,2.671-1.099,2.671-2.563c0-0.795-0.27-1.297-0.763-1.94l-12.292-15.255l11.419-11.001
			c0.686-0.638,0.977-1.225,0.977-1.991c0-1.189-0.908-2.417-2.419-2.417c-0.921,0-1.572,0.296-2.242,1.014l-17.741,17.851v-16.241
			c0-1.472-1.151-2.623-2.623-2.623c-1.495,0-2.668,1.151-2.668,2.623v29.926c0,1.472,1.173,2.619,2.668,2.619
			c1.472,0,2.623-1.147,2.623-2.619v-7.583L438.879,235.283z"/>
	</g>
	<g>
		<g>
			<path fill="#F47E20" d="M314.487,219.061l12.167,28.607c0.2,0.447,0.349,0.893,0.349,1.442c0,1.632-1.339,2.973-3.08,2.973
				c-1.589,0-2.629-0.894-3.125-2.178L310.76,224.82l-10.181,25.283c-0.399,1.046-1.491,1.98-2.928,1.98
				c-1.694,0-3.032-1.285-3.032-2.932c0-0.438,0.148-0.938,0.295-1.285l12.22-28.806c0.645-1.542,1.789-2.486,3.527-2.486h0.345
				C312.699,216.575,313.841,217.519,314.487,219.061z"/>
			<path fill="#F47E20" d="M323.923,252.57c-1.667,0-2.97-0.908-3.577-2.492l-9.585-23.957l-9.734,24.161
				c-0.433,1.137-1.648,2.288-3.374,2.288c-1.974,0-3.517-1.499-3.517-3.418c0-0.62,0.235-1.242,0.339-1.478l12.217-28.806
				c0.758-1.816,2.135-2.78,3.972-2.78h0.345c1.809,0,3.162,0.964,3.924,2.78l12.17,28.609c0.187,0.424,0.387,0.964,0.387,1.633
				C327.488,251.053,325.923,252.57,323.923,252.57z M310.763,223.523l10.484,26.2c0.327,0.865,1.059,1.875,2.676,1.875
				c1.454,0,2.596-1.085,2.596-2.487c0-0.457-0.125-0.828-0.308-1.252l-12.175-28.611c-0.602-1.456-1.625-2.188-3.029-2.188h-0.345
				c-1.438,0-2.472,0.731-3.078,2.188l-12.222,28.808c-0.165,0.377-0.261,0.795-0.261,1.097c0,1.373,1.119,2.446,2.549,2.446
				c1.267,0,2.156-0.837,2.474-1.671L310.763,223.523z"/>
		</g>
	</g>
	<g>
		<g>
			<path fill="#EF4B23" d="M371.785,219.061l12.169,28.607c0.2,0.447,0.349,0.893,0.349,1.442c0,1.632-1.342,2.973-3.079,2.973
				c-1.587,0-2.63-0.894-3.125-2.178l-10.037-25.086l-10.184,25.283c-0.397,1.046-1.487,1.98-2.928,1.98
				c-1.688,0-3.029-1.285-3.029-2.932c0-0.438,0.146-0.938,0.298-1.285l12.218-28.806c0.644-1.542,1.789-2.486,3.527-2.486h0.349
				C370,216.575,371.144,217.519,371.785,219.061z"/>
			<path fill="#EF4B23" d="M381.225,252.57c-1.668,0-2.972-0.908-3.58-2.492l-9.588-23.957l-9.729,24.161
				c-0.43,1.137-1.647,2.288-3.378,2.288c-1.971,0-3.515-1.499-3.515-3.418c0-0.628,0.235-1.242,0.339-1.478l12.215-28.806
				c0.764-1.816,2.136-2.78,3.974-2.78h0.349c1.8,0,3.159,0.964,3.921,2.78l12.171,28.609c0.19,0.424,0.384,0.964,0.384,1.633
				C384.789,251.053,383.222,252.57,381.225,252.57z M368.064,223.523l10.483,26.2c0.333,0.865,1.059,1.875,2.677,1.875
				c1.455,0,2.597-1.085,2.597-2.487c0-0.457-0.123-0.828-0.308-1.252l-12.174-28.611c-0.604-1.456-1.626-2.188-3.027-2.188h-0.349
				c-1.436,0-2.474,0.731-3.079,2.188l-12.218,28.808c-0.167,0.377-0.261,0.787-0.261,1.097c0,1.373,1.116,2.446,2.544,2.446
				c1.27,0,2.156-0.837,2.476-1.671L368.064,223.523z"/>
		</g>
	</g>
	<g>
		<g>
			<path fill="#F47E20" d="M355.467,211.884l-18.411,45.066c-0.457,0.918-1.221,1.433-2.237,1.433c-1.325,0-2.395-1.079-2.395-2.343
				c0-0.461,0.151-0.918,0.252-1.229l18.465-45.064c0.458-0.918,1.171-1.423,2.189-1.423c1.324,0,2.443,1.065,2.443,2.341
				C355.774,211.119,355.62,211.582,355.467,211.884z"/>
			<path fill="#F47E20" d="M334.819,258.871c-1.59,0-2.88-1.276-2.88-2.83c0-0.538,0.169-1.048,0.281-1.377l18.473-45.099
				c0.571-1.142,1.479-1.727,2.638-1.727c1.588,0,2.93,1.291,2.93,2.827c0,0.651-0.248,1.219-0.356,1.437l-18.4,45.037
				C336.943,258.263,336,258.871,334.819,258.871z M353.331,208.808c-0.802,0-1.36,0.362-1.756,1.159l-18.447,45.025
				c-0.089,0.269-0.218,0.669-0.218,1.048c0,1.022,0.853,1.854,1.909,1.854c0.814,0,1.423-0.39,1.804-1.155l18.396-45.035
				c0.175-0.357,0.272-0.728,0.272-1.038C355.292,209.657,354.392,208.808,353.331,208.808z"/>
		</g>
	</g>
</g>
<g>
	<path fill="#676767" d="M231.494,282.531v-10.828h5.863v1.318h-4.234v3.26h3.939v1.318h-3.939v3.607h4.342v1.324H231.494z"/>
	<path fill="#676767" d="M243.692,275.747h-1.942v4.001c0,1.062,0.325,1.477,1.056,1.583c0.264,0.045,0.449,0.031,0.99-0.136
		l0.295,1.229c-0.496,0.165-0.885,0.212-1.238,0.212c-1.442,0-2.636-0.714-2.636-2.639v-4.234h-1.444v-1.19h4.919V275.747z"/>
	<path fill="#676767" d="M251.974,276.217v6.313h-1.52v-1.138h-0.031c-0.433,0.732-1.166,1.301-2.279,1.301
		c-2.296,0-3.305-1.838-3.305-4.12c0-2.156,1.009-4.177,3.305-4.177c1.285,0,1.904,0.782,2.328,1.404h0.026v-0.502l0.079-0.71h1.488
		C252.022,274.932,251.974,275.815,251.974,276.217z M248.438,275.611c-1.611,0-1.989,1.645-1.989,2.963
		c0,1.303,0.342,2.932,1.958,2.932c1.538,0,2.033-1.646,2.033-2.932C250.44,277.271,249.99,275.611,248.438,275.611z"/>
	<path fill="#676767" d="M254.301,282.531v-7.959h1.541v7.959H254.301z"/>
	<path fill="#676767" d="M261.971,282.725c-1.183,0-1.878-0.463-2.419-1.379h-0.034v4.44h-1.536v-6.902
		c0-3.461,1.86-4.487,3.707-4.487c2.248,0,3.584,1.884,3.584,4.177C265.273,280.871,264.263,282.725,261.971,282.725z
		 M263.655,278.574c0-1.318-0.43-2.949-2.041-2.949c-1.567,0-2.096,1.664-2.096,2.949s0.545,2.932,2.096,2.932
		c1.611,0,2.028-1.629,2.028-2.932H263.655z"/>
	<path fill="#676767" d="M267.944,273.625h-1.012l1.371-2.174h1.675L267.944,273.625z M267.187,282.531v-7.959h1.531v7.959H267.187z
		"/>
	<path fill="#676767" d="M277.688,276.217v6.313h-1.52v-1.138h-0.034c-0.435,0.732-1.166,1.301-2.279,1.301
		c-2.293,0-3.303-1.838-3.303-4.12c0-2.156,1.01-4.177,3.303-4.177c1.283,0,1.906,0.782,2.325,1.404h0.032v-0.502l0.074-0.71h1.488
		C277.731,274.932,277.688,275.815,277.688,276.217z M274.149,275.611c-1.61,0-1.985,1.645-1.985,2.963
		c0,1.303,0.341,2.932,1.951,2.932c1.542,0,2.038-1.646,2.038-2.932C276.152,277.271,275.7,275.611,274.149,275.611z"/>
	<path fill="#676767" d="M284.458,282.531v-10.828h5.861v1.318h-4.239v3.26h3.941v1.318h-3.941v3.607h4.348v1.324H284.458z"/>
	<path fill="#676767" d="M297.808,282.531v-3.957c0-1.181-0.479-2.839-2.09-2.839c-1.474,0-1.615,1.244-1.615,2.423v4.373h-1.52
		v-4.766c0-1.857,0.696-3.251,2.696-3.251c1.136,0,2.015,0.565,2.5,1.394h0.028c0-0.235,0.016-0.683,0.016-0.952v-0.229
		c0-1.548-0.415-2.684-2.153-2.609c-0.638,0.056-1.303,0.311-1.905,0.683l-0.374-1.159c1.036-0.473,1.812-0.665,2.603-0.71
		c2.406-0.075,3.3,1.287,3.3,3.596l0.018,8.005H297.808z"/>
	<path fill="#676767" d="M304.498,282.694c-1.841,0-3.473-0.846-3.473-2.462c0-0.887,0.655-1.643,1.536-1.909
		c-0.793-0.294-1.349-0.887-1.349-1.688c0-1.599,1.532-2.221,3.023-2.221c0.79,0,1.674,0.068,2.654,0.422l-0.39,1.208
		c-0.663-0.31-1.474-0.51-2.17-0.465c-0.988,0.045-1.66,0.526-1.66,1.041c0,0.87,0.714,1.098,1.395,1.145
		c0.266,0.018,0.563,0,0.825,0h1.039v1.164h-1.194c-0.917,0-2.22,0.154-2.22,1.244c0,0.86,0.885,1.365,1.942,1.365
		c0.604,0,1.238-0.062,2.356-0.579l0.37,1.199C306.114,282.575,305.306,282.694,304.498,282.694z"/>
	<path fill="#676767" d="M311.975,282.667c-1.471,0-3.488-0.62-3.488-2.897v-3.832c0-0.5-0.015-0.871-0.153-1.348h1.52
		c0.127,0.263,0.156,0.694,0.156,1.128v4c0,1.048,0.777,1.774,1.954,1.774c1.181,0,1.955-0.727,1.955-1.774v-5.128h1.52v5.18
		C315.437,282.046,313.468,282.667,311.975,282.667z M311.901,273.567h-0.991l1.365-2.115h1.674L311.901,273.567z"/>
	<path fill="#676767" d="M321.069,282.725c-2.854,0-3.844-2.697-3.844-5.872c0-3.432,1.118-5.97,3.832-5.97
		c2.732,0,3.847,2.538,3.847,5.97C324.904,280.028,323.889,282.725,321.069,282.725z M318.836,277.133
		c0.047,2.187,0.469,4.372,2.221,4.372c1.736,0,2.205-2.186,2.245-4.372H318.836z M321.069,272.087c-1.55,0-2.139,1.894-2.214,3.865
		h4.434C323.166,273.981,322.622,272.087,321.069,272.087z"/>
	<path fill="#676767" d="M329.652,282.694c-1.844,0-3.472-0.846-3.472-2.462c0-0.887,0.652-1.643,1.535-1.909
		c-0.794-0.294-1.347-0.887-1.347-1.688c0-1.599,1.534-2.221,3.021-2.221c0.792,0,1.676,0.068,2.653,0.422l-0.39,1.208
		c-0.666-0.31-1.471-0.51-2.171-0.465c-0.989,0.045-1.658,0.526-1.658,1.041c0,0.87,0.714,1.098,1.397,1.145
		c0.261,0.018,0.561,0,0.822,0h1.042v1.164h-1.198c-0.913,0-2.217,0.154-2.217,1.244c0,0.86,0.885,1.365,1.94,1.365
		c0.604,0,1.239-0.062,2.359-0.579l0.368,1.199C331.271,282.575,330.462,282.694,329.652,282.694z"/>
	<path fill="#676767" d="M337.455,282.725c-1.173,0-1.877-0.463-2.415-1.379h-0.034v4.44h-1.535v-6.902
		c0-3.461,1.861-4.487,3.705-4.487c2.252,0,3.584,1.884,3.584,4.177C340.761,280.871,339.754,282.725,337.455,282.725z
		 M339.151,278.574c0-1.318-0.438-2.949-2.054-2.949c-1.563,0-2.091,1.664-2.091,2.949s0.542,2.932,2.091,2.932
		c1.616,0,2.033-1.629,2.033-2.932H339.151z"/>
	<path fill="#676767" d="M346.039,282.711c-2.609,0-3.941-1.901-3.941-4.122c0-2.405,1.491-4.202,3.928-4.202
		c2.459,0,3.948,1.785,3.948,4.187C349.974,280.81,348.639,282.711,346.039,282.711z M346.039,275.611
		c-1.537,0-2.328,1.335-2.328,2.844c0,1.558,0.668,3.037,2.315,3.037c1.659,0,2.325-1.446,2.325-3.023
		c0-1.538-0.776-2.857-2.325-2.857H346.039z"/>
	<path fill="#676767" d="M355.195,282.667c-1.476,0-3.49-0.62-3.49-2.897v-3.832c0-0.5-0.019-0.871-0.157-1.348h1.522
		c0.125,0.263,0.154,0.694,0.154,1.128v4c0,1.048,0.776,1.774,1.957,1.774c1.177,0,1.95-0.727,1.95-1.774v-5.128h1.525v5.18
		C358.657,282.046,356.684,282.667,355.195,282.667z"/>
	<path fill="#676767" d="M372.942,282.531c-1.224-3.211-0.589-1.465-3.488-9.232l-0.017,0.018c-2.916,7.736-2.294,6.014-3.522,9.215
		h-1.642l4.325-10.828h1.83l4.283,10.828H372.942z"/>
	<path fill="#676767" d="M379.411,282.711c-2.603,0-3.937-1.901-3.937-4.122c0-2.405,1.488-4.202,3.926-4.202
		c2.464,0,3.952,1.785,3.952,4.187C383.352,280.81,382.02,282.711,379.411,282.711z M379.411,275.611
		c-1.531,0-2.324,1.335-2.324,2.844c0,1.558,0.666,3.037,2.313,3.037c1.658,0,2.326-1.446,2.326-3.023
		c0-1.538-0.778-2.857-2.326-2.857H379.411z"/>
	<path fill="#676767" d="M388.569,282.097v3.689h-1.517v-3.758l-2.95-7.457h1.661l2.082,5.569h0.027l2.11-5.569h1.568
		L388.569,282.097z"/>
	<path fill="#676767" d="M392.87,282.531v-7.959h1.536v7.959H392.87z"/>
	<path fill="#676767" d="M403.003,275.747c0.678,0.735,0.99,1.76,0.99,2.918c0,2.046-1.271,4.047-3.892,4.047
		c-2.59,0-3.866-1.987-3.866-4.047c0-2.237,1.414-4.093,3.866-4.093h4.512v1.175H403.003z M400.101,275.762
		c-1.524,0-2.249,1.355-2.249,2.778c0,1.487,0.606,2.98,2.249,2.98c1.659,0,2.262-1.493,2.262-2.98
		C402.363,277.094,401.666,275.762,400.101,275.762z"/>
	<path fill="#676767" d="M411.196,282.531c-0.065-0.206-0.065-0.716-0.065-0.889v-0.372h-0.03c-0.498,0.743-1.211,1.441-2.588,1.441
		c-0.499,0-0.89-0.105-1.194-0.288v3.363h-1.525v-11.215h1.525v4.549c0,1.217,0.278,2.371,1.61,2.371
		c1.658,0,2.097-1.602,2.097-2.771v-4.149h1.514v6.123c0,0.624,0,1.194,0.08,1.836H411.196z"/>
	<path fill="#676767" d="M414.871,282.531v-7.959h1.542v7.959H414.871z"/>
	<path fill="#676767" d="M423.593,282.531l-3.271-3.957l-0.031-0.016v3.973h-1.537v-7.959h1.537v3.229l0.031-0.019l2.992-3.211
		h1.855l-3.426,3.539l3.85,4.42H423.593z"/>
	<path fill="#676767" d="M430.309,282.711c-2.604,0-3.938-1.901-3.938-4.122c0-2.405,1.488-4.202,3.926-4.202
		c2.465,0,3.952,1.785,3.952,4.187C434.248,280.81,432.914,282.711,430.309,282.711z M430.309,275.611
		c-1.531,0-2.323,1.335-2.323,2.844c0,1.558,0.664,3.037,2.311,3.037c1.658,0,2.325-1.446,2.325-3.023
		c0-1.538-0.78-2.857-2.325-2.857H430.309z"/>
	<path fill="#676767" d="M439.467,282.667c-1.474,0-3.488-0.62-3.488-2.897v-3.832c0-0.5-0.019-0.871-0.156-1.348h1.52
		c0.126,0.263,0.153,0.694,0.153,1.128v4c0,1.048,0.771,1.774,1.956,1.774c1.178,0,1.949-0.727,1.949-1.774v-5.128h1.523v5.18
		C442.924,282.046,440.958,282.667,439.467,282.667z M439.386,273.567h-0.99l1.363-2.115h1.676L439.386,273.567z"/>
	<path fill="#676767" d="M449.647,282.711h-1.351l3.987-11.191h1.354L449.647,282.711z"/>
	<path fill="#676767" d="M239.049,301.146c-1.228-3.208-0.59-1.456-3.49-9.231l-0.019,0.021c-2.912,7.736-2.292,6.018-3.518,9.209
		h-1.645l4.325-10.821h1.83l4.281,10.821H239.049z"/>
	<path fill="#676767" d="M245.521,301.33c-2.609,0-3.942-1.904-3.942-4.125c0-2.401,1.49-4.198,3.926-4.198
		c2.468,0,3.956,1.781,3.956,4.183C249.461,299.426,248.128,301.33,245.521,301.33z M245.521,294.224
		c-1.536,0-2.328,1.337-2.328,2.846c0,1.567,0.669,3.039,2.312,3.039c1.658,0,2.323-1.444,2.323-3.027
		c0-1.536-0.774-2.857-2.323-2.857H245.521z"/>
	<path fill="#676767" d="M254.679,300.71v3.694h-1.524v-3.754l-2.945-7.463h1.66l2.078,5.573h0.034l2.109-5.573h1.564
		L254.679,300.71z"/>
	<path fill="#676767" d="M258.975,301.146v-7.959h1.541v7.959H258.975z"/>
	<path fill="#676767" d="M269.106,294.372c0.683,0.727,0.992,1.75,0.992,2.918c0,2.044-1.273,4.041-3.887,4.041
		c-2.597,0-3.866-1.979-3.866-4.041c0-2.239,1.415-4.103,3.866-4.103h4.508v1.185H269.106z M266.21,294.387
		c-1.523,0-2.255,1.346-2.255,2.772c0,1.495,0.609,2.977,2.255,2.977c1.66,0,2.26-1.481,2.26-2.977
		C268.47,295.721,267.774,294.387,266.21,294.387z"/>
	<path fill="#676767" d="M277.298,301.146c-0.062-0.198-0.062-0.716-0.062-0.881v-0.366h-0.032
		c-0.493,0.739-1.206,1.431-2.586,1.431c-0.496,0-0.887-0.104-1.199-0.291v3.365h-1.517v-11.217h1.517v4.55
		c0,1.224,0.281,2.372,1.616,2.372c1.658,0,2.094-1.602,2.094-2.759v-4.163h1.522v6.133c0,0.62,0,1.189,0.074,1.827H277.298z"/>
	<path fill="#676767" d="M280.977,301.146v-7.959h1.539v7.959H280.977z"/>
	<path fill="#676767" d="M289.696,301.146l-3.269-3.958l-0.031-0.012v3.969h-1.538v-7.959h1.538v3.229l0.031-0.018l2.99-3.212h1.864
		l-3.431,3.541l3.846,4.418H289.696z"/>
	<path fill="#676767" d="M296.416,301.33c-2.609,0-3.941-1.904-3.941-4.125c0-2.401,1.488-4.198,3.926-4.198
		c2.464,0,3.952,1.781,3.952,4.183C300.353,299.426,299.024,301.33,296.416,301.33z M296.416,294.224
		c-1.537,0-2.325,1.337-2.325,2.846c0,1.567,0.666,3.039,2.31,3.039c1.659,0,2.325-1.444,2.325-3.027
		c0-1.536-0.774-2.857-2.325-2.857H296.416z"/>
	<path fill="#676767" d="M305.57,301.289c-1.473,0-3.488-0.624-3.488-2.901v-3.836c0-0.49-0.021-0.863-0.156-1.348h1.522
		c0.123,0.265,0.154,0.698,0.154,1.138v3.997c0,1.041,0.774,1.77,1.958,1.77c1.176,0,1.952-0.729,1.952-1.77v-5.135h1.521v5.184
		C309.032,300.666,307.061,301.289,305.57,301.289z M305.493,292.182h-0.995l1.366-2.107h1.68L305.493,292.182z"/>
	<path fill="#676767" d="M323.32,301.146l-1.038-2.7h-4.934l-1.051,2.7h-1.645l4.328-10.821h1.83l4.283,10.821H323.32z
		 M319.848,291.916l-0.034,0.021l-1.954,5.191h3.926L319.848,291.916z"/>
	<path fill="#676767" d="M329.994,301.146h-1.739l-2.836-7.959h1.658l2.08,6.343h0.032l2.111-6.343h1.562L329.994,301.146z"/>
	<path fill="#676767" d="M337.551,301.33c-2.603,0-3.94-1.904-3.94-4.125c0-2.401,1.49-4.198,3.926-4.198
		c2.461,0,3.95,1.781,3.95,4.183C341.487,299.426,340.153,301.33,337.551,301.33z M337.551,294.224
		c-1.536,0-2.325,1.337-2.325,2.846c0,1.567,0.667,3.039,2.312,3.039c1.661,0,2.324-1.444,2.324-3.027
		c0-1.536-0.773-2.857-2.324-2.857H337.551z"/>
	<path fill="#676767" d="M343.247,301.146v-7.959h1.536v7.959H343.247z"/>
	<path fill="#676767" d="M351.748,301.146l-1.94-3.192l-2.001,3.192h-1.721l2.779-4.183l-2.498-3.776h1.83l1.718,2.796l1.726-2.796
		h1.661l-2.423,3.776l2.709,4.183H351.748z"/>
	<path fill="#676767" d="M359.011,294.372h-1.938v3.999c0,1.056,0.325,1.469,1.056,1.585c0.263,0.047,0.45,0.027,0.993-0.146
		l0.294,1.229c-0.495,0.174-0.888,0.219-1.243,0.219c-1.441,0-2.636-0.713-2.636-2.634v-4.236h-1.444v-1.2h4.919V294.372z"/>
	<path fill="#676767" d="M364.042,301.33c-2.606,0-3.944-1.904-3.944-4.125c0-2.401,1.494-4.198,3.926-4.198
		c2.462,0,3.95,1.781,3.95,4.183C367.975,299.426,366.644,301.33,364.042,301.33z M364.042,294.224
		c-1.538,0-2.328,1.337-2.328,2.846c0,1.567,0.667,3.039,2.31,3.039c1.662,0,2.325-1.444,2.325-3.027
		c0-1.536-0.777-2.857-2.325-2.857H364.042z"/>
	<path fill="#676767" d="M373.192,301.289c-1.474,0-3.488-0.624-3.488-2.901v-3.836c0-0.49-0.015-0.863-0.153-1.348h1.518
		c0.123,0.265,0.154,0.698,0.154,1.138v3.997c0,1.041,0.776,1.77,1.955,1.77s1.955-0.729,1.955-1.77v-5.135h1.522v5.184
		C376.654,300.666,374.681,301.289,373.192,301.289z M373.118,292.182h-0.991l1.363-2.107h1.676L373.118,292.182z"/>
	<path fill="#676767" d="M389.667,301.146l-4.553-5.206l-0.018-0.018v5.223h-1.63v-10.821h1.613v4.756l4.39-4.756h2.047
		l-4.857,5.098l5.168,5.723H389.667z"/>
	<path fill="#676767" d="M392.593,297.189c0-1.175,0.48-3.749,3.288-4.12l0.294,1.193c-1.599,0.249-2.015,1.826-2.015,2.927
		c0,1.985,0.944,2.891,1.812,2.891c0.698,0,1.361-0.524,1.361-1.519v-3.479h1.462v1.629c0,0.889,0.11,1.646,0.219,2.312
		c0.123,0.669,0.575,1.039,1.114,1.058c1.009,0.041,1.863-0.905,1.863-2.891c0-1.101-0.435-2.678-2.035-2.927l0.328-1.193
		c2.792,0.371,3.257,2.945,3.257,4.12c0,1.417-0.404,4.141-3.27,4.141c-0.827,0-1.755-0.258-2.206-1.147
		c-0.477,0.872-1.378,1.147-2.205,1.147C392.993,301.33,392.593,298.606,392.593,297.189z M397.93,292.182h-1.012l1.366-2.107h1.672
		L397.93,292.182z"/>
	<path fill="#676767" d="M408.635,301.33c-2.589,0-3.877-1.979-3.877-4.056c0-1.584,0.777-3.229,2.265-3.805
		c-0.606-0.42-0.993-0.885-0.993-1.674c0-1.721,1.676-2.419,3.084-2.419c0.918,0,1.711,0.151,2.376,0.326l-0.14,1.303
		c-0.51-0.233-1.301-0.41-2.032-0.41c-0.775,0-1.769,0.253-1.769,1.124c0,0.741,1.086,1.128,2.123,1.501
		c1.866,0.667,2.855,2.232,2.855,4.054C412.527,299.257,411.239,301.33,408.635,301.33z M408.635,294.354
		c-1.535,0-2.264,1.399-2.264,2.79c0,1.448,0.639,2.992,2.264,2.992c1.659,0,2.279-1.499,2.279-2.992
		C410.914,295.983,410.245,294.354,408.635,294.354z"/>
	<path fill="#676767" d="M414.346,301.146v-7.959h1.54v7.959H414.346z"/>
	<path fill="#676767" d="M423.068,301.146l-3.278-3.958l-0.027-0.012v3.969h-1.538v-7.959h1.538v3.229l0.027-0.018l2.998-3.212
		h1.858l-3.428,3.541l3.852,4.418H423.068z"/>
	<path fill="#676767" d="M433.043,294.834v6.312h-1.521v-1.13h-0.037c-0.428,0.729-1.158,1.304-2.271,1.304
		c-2.298,0-3.306-1.849-3.306-4.131c0-2.15,1.008-4.167,3.306-4.167c1.285,0,1.905,0.772,2.319,1.393h0.035v-0.49l0.076-0.72h1.489
		C433.085,293.543,433.043,294.43,433.043,294.834z M429.502,294.224c-1.61,0-1.983,1.646-1.983,2.965
		c0,1.303,0.34,2.932,1.956,2.932c1.535,0,2.032-1.643,2.032-2.932C431.507,295.886,431.058,294.224,429.502,294.224z"/>
</g>
<g>
	<path fill="#43A957" d="M527.526,210.034c-20.047,0-36.292,16.251-36.292,36.295c0,15.467,9.68,28.669,23.307,33.892l8.021-22.274
		c-4.714-1.625-8.108-6.084-8.108-11.353c0-6.631,5.376-12.007,12.006-12.007c6.635,0,12.007,5.376,12.007,12.007
		c0,4.812-2.839,8.955-6.928,10.869l8.286,23.015c13.988-5.04,23.993-18.425,23.993-34.148
		C563.818,226.285,547.57,210.034,527.526,210.034z"/>
	<g>
		<path d="M481.966,299.047c-0.311,1.018-0.713,1.844-1.203,2.472c-0.492,0.631-1.046,1.086-1.655,1.367
			c-0.608,0.279-1.207,0.416-1.782,0.416h-0.032c-0.686,0-1.333-0.16-1.943-0.48c-0.61-0.326-1.141-0.811-1.591-1.465
			c-0.447-0.651-0.811-1.478-1.073-2.487c-0.27-1.007-0.405-2.193-0.405-3.567c0-1.41,0.148-2.627,0.435-3.642
			c0.288-1.021,0.676-1.852,1.153-2.507c0.489-0.653,1.038-1.128,1.659-1.429c0.62-0.298,1.263-0.451,1.928-0.451
			c0.684,0,1.324,0.159,1.925,0.481c0.601,0.325,1.122,0.815,1.575,1.479c0.45,0.665,0.809,1.497,1.075,2.506
			c0.269,1.007,0.4,2.184,0.4,3.531C482.431,296.773,482.275,298.029,481.966,299.047z M479.862,293.312
			c-0.064-0.702-0.192-1.363-0.383-1.974c-0.196-0.608-0.463-1.118-0.809-1.526c-0.34-0.408-0.787-0.608-1.346-0.608
			c-0.555,0-1.008,0.2-1.351,0.608s-0.607,0.918-0.804,1.526c-0.192,0.61-0.324,1.271-0.4,1.974c-0.076,0.711-0.111,1.36-0.111,1.96
			c0,0.644,0.035,1.324,0.111,2.043c0.076,0.714,0.208,1.375,0.4,1.976c0.196,0.599,0.466,1.095,0.818,1.491
			c0.354,0.396,0.811,0.597,1.365,0.597h0.036c0.533,0,0.969-0.207,1.301-0.613c0.33-0.408,0.592-0.917,0.788-1.528
			c0.19-0.608,0.318-1.266,0.383-1.974c0.064-0.705,0.094-1.37,0.094-1.992C479.956,294.672,479.927,294.023,479.862,293.312z"/>
		<path d="M494.777,298.953c-0.267,1.013-0.625,1.847-1.073,2.489c-0.452,0.641-0.965,1.115-1.542,1.414
			c-0.579,0.297-1.17,0.447-1.77,0.447c-0.748,0-1.336-0.189-1.763-0.574c-0.431-0.389-0.751-0.793-0.967-1.221h-0.064v7.707h-2.408
			v-16.864c0-1.221-0.011-2.195-0.033-2.924c-0.02-0.726-0.051-1.361-0.095-1.893h2.184l0.096,1.956h0.062
			c0.432-0.832,0.932-1.409,1.513-1.734c0.578-0.322,1.178-0.481,1.799-0.481c1.348,0,2.433,0.681,3.243,2.043
			c0.814,1.357,1.222,3.333,1.222,5.923C495.181,296.697,495.048,297.933,494.777,298.953z M492.594,293.01
			c-0.095-0.716-0.257-1.349-0.482-1.896c-0.222-0.547-0.513-0.977-0.867-1.303c-0.352-0.321-0.773-0.48-1.266-0.48
			c-0.281,0-0.549,0.078-0.804,0.241c-0.258,0.159-0.487,0.375-0.69,0.64c-0.205,0.271-0.376,0.575-0.516,0.918
			c-0.137,0.344-0.23,0.696-0.272,1.062l-0.062,0.577c-0.022,0.192-0.035,0.396-0.035,0.61v3.949c0,0.516,0.045,0.943,0.127,1.283
			c0.131,0.555,0.289,1.014,0.47,1.369c0.184,0.354,0.382,0.622,0.594,0.818c0.213,0.192,0.428,0.32,0.641,0.384
			c0.215,0.064,0.407,0.098,0.578,0.098c0.515,0,0.95-0.168,1.303-0.5c0.355-0.332,0.636-0.771,0.852-1.316
			c0.212-0.546,0.365-1.178,0.447-1.896c0.087-0.718,0.13-1.474,0.13-2.267C492.739,294.49,492.691,293.726,492.594,293.01z"/>
		<path d="M500.045,298.419c0.224,0.747,0.509,1.334,0.852,1.752s0.732,0.706,1.174,0.868c0.438,0.16,0.883,0.242,1.33,0.242
			c0.537,0,1.023-0.061,1.461-0.178c0.442-0.118,0.81-0.265,1.107-0.436l0.389,1.829c-0.428,0.238-0.948,0.424-1.562,0.551
			c-0.607,0.129-1.222,0.191-1.842,0.191c-1.864,0-3.272-0.707-4.226-2.119c-0.952-1.411-1.428-3.308-1.428-5.684
			c0-1.266,0.127-2.397,0.385-3.404c0.256-1.008,0.612-1.863,1.075-2.572c0.461-0.706,1.011-1.251,1.651-1.638
			c0.647-0.387,1.351-0.579,2.124-0.579c0.79,0,1.471,0.192,2.038,0.579s1.028,0.898,1.382,1.542
			c0.352,0.646,0.606,1.377,0.769,2.197c0.161,0.828,0.241,1.68,0.241,2.557v1.381h-7.259
			C499.706,296.697,499.823,297.671,500.045,298.419z M503.9,290.248c-0.482-0.72-1.026-1.077-1.626-1.077
			c-0.404,0-0.758,0.134-1.056,0.402c-0.301,0.267-0.56,0.614-0.775,1.046c-0.21,0.428-0.375,0.904-0.495,1.441
			c-0.121,0.536-0.188,1.071-0.207,1.607h4.85C504.61,292.104,504.381,290.963,503.9,290.248z"/>
		<path d="M516.694,293.024c0-0.467-0.024-0.922-0.076-1.362c-0.055-0.44-0.163-0.835-0.324-1.19
			c-0.159-0.354-0.387-0.636-0.675-0.851c-0.288-0.217-0.657-0.322-1.108-0.322c-0.62,0-1.146,0.265-1.573,0.786
			c-0.43,0.526-0.704,1.197-0.835,2.01c-0.042,0.192-0.062,0.384-0.062,0.576v0.577v9.799h-2.411v-11.534
			c0-0.447-0.003-0.855-0.015-1.219c-0.013-0.364-0.021-0.696-0.034-0.996c-0.01-0.299-0.027-0.595-0.049-0.883
			c-0.018-0.289-0.03-0.585-0.03-0.881h2.122l0.127,1.859h0.065c0.319-0.62,0.787-1.128,1.397-1.523
			c0.607-0.397,1.318-0.596,2.134-0.596c0.536,0,1.028,0.101,1.476,0.307c0.453,0.206,0.849,0.518,1.19,0.947
			c0.344,0.43,0.608,0.979,0.801,1.654c0.195,0.675,0.292,1.483,0.292,2.427v10.437h-2.411V293.024z"/>
		<path d="M533.892,300.667c-0.244,0.581-0.583,1.061-1.011,1.446c-0.43,0.383-0.922,0.672-1.478,0.852
			c-0.558,0.186-1.155,0.273-1.799,0.273c-0.556,0-1.118-0.078-1.686-0.242c-0.567-0.158-1.026-0.375-1.363-0.656l0.608-1.831
			c0.279,0.17,0.638,0.349,1.075,0.53c0.44,0.182,0.918,0.271,1.43,0.271c0.707,0,1.271-0.201,1.687-0.608
			c0.415-0.409,0.628-0.965,0.628-1.673c0-0.597-0.141-1.129-0.42-1.592c-0.277-0.457-0.804-0.943-1.573-1.457
			c-1.025-0.686-1.809-1.37-2.344-2.057c-0.536-0.685-0.807-1.478-0.807-2.376c0-0.644,0.108-1.227,0.324-1.75
			c0.215-0.525,0.515-0.973,0.9-1.352c0.385-0.373,0.84-0.659,1.365-0.865s1.085-0.307,1.684-0.307c0.601,0,1.133,0.083,1.591,0.241
			c0.459,0.159,0.843,0.338,1.144,0.53l-0.648,1.834c-0.298-0.218-0.612-0.39-0.943-0.518c-0.334-0.128-0.703-0.192-1.11-0.192
			c-0.686,0-1.19,0.212-1.523,0.628c-0.333,0.414-0.5,0.883-0.5,1.393c0,0.54,0.127,0.995,0.386,1.366
			c0.258,0.377,0.775,0.822,1.543,1.336c0.902,0.597,1.655,1.269,2.278,2.005c0.621,0.74,0.933,1.656,0.933,2.747
			C534.262,299.416,534.14,300.091,533.892,300.667z"/>
		<path d="M545.842,299.047c-0.313,1.018-0.714,1.844-1.207,2.472c-0.492,0.631-1.042,1.086-1.652,1.367
			c-0.611,0.279-1.204,0.416-1.78,0.416h-0.036c-0.686,0-1.334-0.16-1.944-0.48c-0.609-0.326-1.14-0.811-1.587-1.465
			c-0.451-0.651-0.809-1.478-1.079-2.487c-0.267-1.007-0.4-2.193-0.4-3.567c0-1.41,0.146-2.627,0.434-3.642
			c0.29-1.021,0.675-1.852,1.158-2.507c0.48-0.653,1.029-1.128,1.653-1.429c0.622-0.298,1.263-0.451,1.926-0.451
			c0.686,0,1.328,0.159,1.932,0.481c0.598,0.325,1.12,0.815,1.569,1.479c0.451,0.665,0.809,1.497,1.076,2.506
			c0.269,1.007,0.403,2.184,0.403,3.531C546.307,296.773,546.148,298.029,545.842,299.047z M543.734,293.312
			c-0.062-0.702-0.192-1.363-0.384-1.974c-0.192-0.608-0.462-1.118-0.804-1.526c-0.341-0.408-0.79-0.608-1.345-0.608
			c-0.559,0-1.009,0.2-1.353,0.608c-0.345,0.408-0.609,0.918-0.802,1.526c-0.195,0.61-0.328,1.271-0.402,1.974
			c-0.076,0.711-0.114,1.36-0.114,1.96c0,0.644,0.038,1.324,0.114,2.043c0.074,0.714,0.207,1.375,0.402,1.976
			c0.192,0.599,0.463,1.095,0.817,1.491c0.355,0.396,0.809,0.597,1.366,0.597h0.032c0.532,0,0.966-0.207,1.301-0.613
			c0.33-0.408,0.594-0.917,0.786-1.528c0.191-0.608,0.321-1.266,0.384-1.974c0.065-0.705,0.099-1.37,0.099-1.992
			C543.833,294.672,543.8,294.023,543.734,293.312z"/>
		<path d="M556.195,301.41h-0.062c-0.108,0.191-0.264,0.4-0.467,0.627c-0.204,0.223-0.442,0.426-0.725,0.607
			c-0.277,0.184-0.599,0.338-0.963,0.469c-0.363,0.125-0.748,0.189-1.156,0.189c-1.348,0-2.318-0.508-2.906-1.525
			c-0.59-1.015-0.883-2.499-0.883-4.449v-9.794h2.408v9.438c0,0.624,0.03,1.199,0.082,1.721c0.052,0.526,0.159,0.979,0.321,1.363
			c0.158,0.387,0.378,0.688,0.658,0.901c0.274,0.213,0.633,0.323,1.061,0.323s0.785-0.098,1.072-0.29
			c0.293-0.192,0.527-0.434,0.708-0.725c0.183-0.286,0.318-0.594,0.403-0.914c0.085-0.323,0.138-0.614,0.16-0.869
			c0.02-0.127,0.032-0.351,0.032-0.673v-0.642v-9.635h2.408v11.303c0,0.857,0.016,1.628,0.048,2.313
			c0.032,0.688,0.06,1.316,0.077,1.896h-2.115L556.195,301.41z"/>
		<path d="M567.306,289.75c-0.812,0-1.486,0.323-2.023,0.963c-0.532,0.642-0.868,1.415-0.996,2.312
			c-0.062,0.388-0.095,0.847-0.095,1.383v8.64h-2.408v-11.534c0-0.659-0.013-1.354-0.033-2.068c-0.02-0.718-0.053-1.355-0.095-1.91
			h2.184l0.095,2.407h0.096c0.237-0.729,0.655-1.356,1.253-1.88c0.601-0.523,1.263-0.787,1.993-0.787h0.514v2.475H567.306z"/>
		<path d="M576.139,289.477c-0.3-0.095-0.653-0.146-1.062-0.146c-0.62,0-1.16,0.173-1.62,0.514
			c-0.463,0.342-0.844,0.795-1.145,1.366c-0.297,0.564-0.514,1.21-0.657,1.926c-0.14,0.715-0.208,1.46-0.208,2.233
			c0,1.838,0.326,3.274,0.981,4.303c0.65,1.029,1.556,1.543,2.714,1.543c0.643,0,1.24-0.141,1.797-0.417l0.321,1.859
			c-0.274,0.172-0.636,0.314-1.075,0.42c-0.438,0.107-0.938,0.16-1.492,0.16c-1.694,0-3.058-0.664-4.098-1.99
			c-1.036-1.33-1.557-3.288-1.557-5.877c0-1.112,0.141-2.16,0.417-3.147c0.279-0.984,0.679-1.84,1.189-2.57
			c0.512-0.728,1.153-1.307,1.909-1.734c0.762-0.43,1.622-0.644,2.588-0.644c0.428,0,0.84,0.052,1.237,0.149
			c0.394,0.092,0.712,0.214,0.946,0.365l-0.483,1.96C576.674,289.663,576.441,289.573,576.139,289.477z"/>
		<path d="M581.448,298.419c0.228,0.747,0.514,1.334,0.854,1.752c0.345,0.418,0.735,0.706,1.173,0.868
			c0.44,0.16,0.881,0.242,1.333,0.242c0.533,0,1.023-0.061,1.461-0.178c0.44-0.118,0.809-0.265,1.108-0.436l0.385,1.829
			c-0.428,0.238-0.945,0.424-1.556,0.551c-0.612,0.129-1.229,0.191-1.851,0.191c-1.861,0-3.267-0.707-4.22-2.119
			c-0.954-1.411-1.431-3.308-1.431-5.684c0-1.266,0.13-2.397,0.387-3.404c0.256-1.008,0.616-1.863,1.076-2.572
			c0.46-0.706,1.011-1.251,1.652-1.638s1.353-0.579,2.119-0.579c0.793,0,1.474,0.192,2.042,0.579
			c0.565,0.387,1.027,0.898,1.383,1.542c0.353,0.646,0.607,1.377,0.769,2.197c0.162,0.828,0.242,1.68,0.242,2.557v1.381h-7.259
			C581.116,296.697,581.227,297.671,581.448,298.419z M585.306,290.248c-0.483-0.72-1.021-1.077-1.623-1.077
			c-0.406,0-0.758,0.134-1.059,0.402c-0.3,0.267-0.558,0.614-0.77,1.046c-0.216,0.428-0.381,0.904-0.499,1.441
			c-0.117,0.536-0.188,1.071-0.21,1.607h4.851C586.021,292.104,585.788,290.963,585.306,290.248z"/>
	</g>
	<g>
		<path d="M566.482,280.632h-0.888v-7.178h-1.451v-0.792h3.805v0.792h-1.466V280.632z"/>
		<path d="M573.649,277.179c-0.032-0.536-0.054-1.079-0.07-1.629c-0.015-0.551-0.015-1.06,0-1.517h-0.045
			c-0.09,0.449-0.186,0.908-0.293,1.378c-0.107,0.469-0.222,0.941-0.35,1.414l-0.99,3.761h-0.568l-0.935-3.607l-0.373-1.507
			c-0.116-0.484-0.21-0.962-0.29-1.438h-0.036c0,0.477-0.01,0.983-0.035,1.53l-0.072,1.688l-0.14,3.381h-0.804l0.474-7.97h0.968
			l0.934,3.667l0.359,1.424c0.11,0.422,0.205,0.863,0.291,1.32h0.027c0.037-0.229,0.08-0.451,0.119-0.665l0.141-0.644l0.148-0.677
			c0.049-0.237,0.111-0.49,0.182-0.759l0.921-3.667h0.992l0.447,7.97h-0.821L573.649,277.179z"/>
	</g>
</g>
</svg>
